# xmcd
#
# Track frame offsets:
#	150
#	19638
#	37572
#	51090
#	68446
#	84786
#	99709
#	114960
#	130289
#	146600
#	164318
#	179521
#	192049
#	205528
#
# Disc length: 2959 seconds
#
# Revision: 1
# Processed by: cddbd v1.5.2PL0 Copyright (c) Steve Scherf et al.
# Submitted via: audiograbber 1.83.01
#
DISCID=a60b8d0e
DTITLE=Various Artist - Hot Hitz Country Vol 98
DYEAR=1900
DGENRE=Country
TTITLE0=Dixie Chicks - Goodbye Earl
TTITLE1=Keith Urban - Your Everything
TTITLE2=Brooks and Dunn - You'll Always Be Loved By Me
TTITLE3=Lee Ann Womack with Sons Of The Desert - I Hope You Dance
TTITLE4=Rascal Flatts - Prayin' For Daylight
TTITLE5=Eric Heatherly - Flowers On The Wall
TTITLE6=John Michael Montgomery - You Are
TTITLE7=Neal McCoy - Forever Works For Me
TTITLE8=Darryl Worley - When You Need My Love
TTITLE9=Gary Allan - Lovin' You Against My Will
TTITLE10=Sons Of The Desert - Change
TTITLE11=Blackhawk - I Need You All The Time
TTITLE12=Joe Diffie - It's Always Somethin'
TTITLE13=Mark Wills - Almost Doesn't Count
EXTD=
EXTT0=
EXTT1=
EXTT2=
EXTT3=
EXTT4=
EXTT5=
EXTT6=
EXTT7=
EXTT8=
EXTT9=
EXTT10=
EXTT11=
EXTT12=
EXTT13=
PLAYORDER=
